<svg width="1001" height="239" viewBox="0 0 1001 239" fill="none" xmlns="http://www.w3.org/2000/svg">
<g opacity="0.82">
<rect x="7.55469" y="163.701" width="35.8849" height="62.4183" fill="#9E9AB3"></rect>
<rect x="47.2178" y="132.492" width="22.6642" height="62.4183" fill="#9E9AB3"></rect>
<rect x="28.3301" y="153.771" width="35.8849" height="62.4183" fill="#9E9AB3"></rect>
<rect x="88.7686" y="149.515" width="35.8849" height="62.4183" fill="#9E9AB3"></rect>
<rect x="113.321" y="128.236" width="35.8849" height="62.4183" fill="#9E9AB3"></rect>
<rect x="149.206" y="137.457" width="47.217" height="62.4183" fill="#9E9AB3"></rect>
<rect x="215.31" y="145.968" width="79.3246" height="62.4183" fill="#9E9AB3"></rect>
<rect x="256.86" y="120.434" width="41.551" height="62.4183" fill="#9E9AB3"></rect>
<rect x="400.4" y="104.12" width="41.551" height="62.4183" fill="#9E9AB3"></rect>
<rect x="426.842" y="145.968" width="41.551" height="62.4183" fill="#9E9AB3"></rect>
<rect x="460.838" y="133.201" width="41.551" height="62.4183" fill="#9E9AB3"></rect>
<rect x="492.945" y="149.515" width="41.551" height="62.4183" fill="#9E9AB3"></rect>
<rect x="538.274" y="140.294" width="41.551" height="62.4183" fill="#9E9AB3"></rect>
<rect x="570.381" y="132.492" width="41.551" height="62.4183" fill="#9E9AB3"></rect>
<rect x="602.489" y="109.085" width="62.3264" height="79.4414" fill="#9E9AB3"></rect>
<rect x="683.702" y="119.725" width="62.3264" height="79.4414" fill="#9E9AB3"></rect>
<rect x="715.81" y="100.574" width="30.2189" height="79.4414" fill="#9E9AB3"></rect>
<rect x="768.692" y="129.655" width="84.9906" height="79.4414" fill="#9E9AB3"></rect>
<rect x="861.238" y="137.457" width="37.7736" height="79.4414" fill="#9E9AB3"></rect>
<rect x="899.012" y="150.224" width="64.2151" height="66.6741" fill="#9E9AB3"></rect>
<rect x="931.119" y="124.689" width="50.9944" height="66.6741" fill="#9E9AB3"></rect>
<rect x="37.7734" y="143.841" width="50.9944" height="82.2786" fill="#716A94"></rect>
<rect x="88.7686" y="168.666" width="50.9944" height="57.4532" fill="#716A94"></rect>
<rect x="113.32" y="155.189" width="50.9944" height="70.9299" fill="#716A94"></rect>
<rect x="175.647" y="155.189" width="81.2132" height="70.9299" fill="#716A94"></rect>
<rect x="139.763" y="188.526" width="81.2132" height="37.5928" fill="#716A94"></rect>
<rect x="294.634" y="188.526" width="81.2132" height="37.5928" fill="#716A94"></rect>
<rect x="396.623" y="159.445" width="81.2132" height="66.6741" fill="#716A94"></rect>
<rect x="477.836" y="188.526" width="324.853" height="37.5928" fill="#716A94"></rect>
<rect y="198.457" width="853.683" height="27.6626" fill="#716A94"></rect>
<rect x="489.168" y="171.503" width="81.2132" height="54.616" fill="#716A94"></rect>
<rect x="545.828" y="165.829" width="81.2132" height="60.2904" fill="#716A94"></rect>
<rect x="528.83" y="154.48" width="35.8849" height="54.616" fill="#716A94"></rect>
<rect x="587.379" y="122.562" width="35.8849" height="84.4065" fill="#716A94"></rect>
<rect x="611.933" y="143.841" width="35.8849" height="82.2786" fill="#716A94"></rect>
<rect x="672.37" y="165.829" width="35.8849" height="60.2904" fill="#716A94"></rect>
<rect x="732.808" y="136.748" width="35.8849" height="89.3716" fill="#716A94"></rect>
<rect x="638.374" y="179.306" width="35.8849" height="46.8137" fill="#716A94"></rect>
<rect x="766.804" y="165.829" width="35.8849" height="60.2904" fill="#716A94"></rect>
<rect x="921.676" y="188.526" width="35.8849" height="37.5928" fill="#716A94"></rect>
<rect x="827.241" y="157.317" width="66.1038" height="68.802" fill="#716A94"></rect>
<rect x="889.568" y="167.248" width="50.9944" height="58.8718" fill="#716A94"></rect>
<rect x="955.522" y="167.215" width="45.4775" height="52.4475" fill="#716A94"></rect>
<rect x="950.085" y="151.789" width="26.199" height="67.8732" fill="#716A94"></rect>
<rect x="721.476" y="154.48" width="35.8849" height="71.6392" fill="#716A94"></rect>
<rect x="874.459" y="145.259" width="35.8849" height="80.86" fill="#716A94"></rect>
<rect x="228.53" y="166.538" width="81.2132" height="59.5811" fill="#716A94"></rect>
<rect x="277.636" y="136.748" width="62.3264" height="89.3716" fill="#716A94"></rect>
<rect x="351.294" y="117.597" width="98.2113" height="108.523" fill="#716A94"></rect>
<rect x="351.294" y="82.8408" width="66.1038" height="108.523" fill="#716A94"></rect>
<rect x="277.636" y="117.597" width="32.1076" height="89.3716" fill="#716A94"></rect>
</g>
<path d="M803.5 212.149V227H94.5V156.25C101.36 157.005 107.528 156.896 115.167 158.46C119.51 152.447 128.222 148.127 131.43 141.671C134.745 135.004 130.925 126.602 132.742 119.541C133.194 117.765 128.736 117.378 128.736 116.473L128.532 77.7437C130.624 76.5124 133.699 75.764 134.753 73.9137L134.984 44.2053C134.984 43.4093 135.675 42.8515 136.455 43.0351C136.872 43.1304 137.377 43.559 137.377 44.1916L137.448 73.9817L143.625 78.1995L143.465 116.684C142.216 117.31 139.486 117.568 139.477 118.752L139.264 142.664L182.788 185.074C192.732 194.761 210.563 198.258 224.167 203.924C227.952 192.992 233.535 195.822 229.848 187.182C232.569 184.829 234.714 181.42 232.516 178.699C232.799 177.985 234.146 176.937 234.687 177.23C238.498 179.325 231.771 183.08 238.542 186.89C240.616 185.543 240.164 183.386 241.688 181.971C244.914 178.999 252.102 179.55 255.567 182.08C256.498 182.761 255.86 184.4 257.065 184.509L259.715 184.733L263.942 188.577C264.855 189.414 268.001 187.72 269.623 188.638C272.415 190.23 273.017 193.06 273.407 195.829L282.802 196.312C285.469 199.122 290.964 201.217 295.147 199.183L295.439 163.093C295.51 154.651 299.561 123.112 313.803 123.31C327.522 123.5 331.829 153.494 331.864 161.739L332.068 208.013C342.251 207.19 341.941 197.509 341.454 192.611C349.908 189.101 342.969 204.013 348.287 208.285C349.146 208.952 352.842 208.061 353.285 207.176L358.151 197.421L361.713 165.168C362.245 160.338 363.326 155.739 365.639 151.324C368.378 146.106 364.744 145.011 368.077 144.406C369.113 144.215 370.78 144.943 370.336 145.916C369.317 148.147 370.248 149.95 370.771 152.147C372.977 161.427 371.994 170.638 373.057 179.985C373.155 180.856 376.327 179.924 376.407 178.658C376.966 169.808 379.491 145.365 384.295 138.405C387.778 133.358 381.84 130.242 387.494 130.14C388.7 130.119 389.568 131.072 390.047 131.671C390.685 132.473 388.832 133.63 388.983 134.256C390.073 138.882 391.376 143.188 391.793 148.134C392.759 159.603 392.909 171.134 393.007 182.563C399.423 182.958 395.728 177.869 399.804 178.06C402.321 178.175 401.151 181.414 403.589 182.101C404.386 182.325 406.752 182.733 406.77 181.509C406.93 168.352 406.956 155.698 408.649 142.725C409.039 139.739 410.838 137.018 410.563 134.215C410.448 133.058 408.587 131.813 410.094 130.834C411.077 130.201 412.699 129.861 413.86 130.555C416.546 132.154 412.442 133.501 415.172 137.793C420.48 146.154 422.607 168.685 423.494 178.699C423.591 179.801 424.247 180.38 425.47 180.427C426.622 180.468 426.95 179.856 426.994 178.686C427.313 169.747 427.118 161.039 428.953 152.249C429.423 149.998 430.504 148.215 429.387 145.943C428.926 145.004 430.726 144.27 431.603 144.378C435.139 144.834 431.399 146.535 434.031 151.195C439.092 160.168 440.27 184.618 441.174 195.298C441.431 198.326 442.805 201.319 444.179 204.074C444.799 205.312 448.211 204.455 448.832 205.197C449.869 206.442 450.161 207.557 452.066 207.537C453.795 207.516 454.69 206.972 456.258 205.897C457.703 204.904 462.639 204.625 463.685 205.877C464.793 207.203 462.879 209.891 465.236 210.571C467.859 211.333 470.261 210.53 473.301 211.108C472.37 213.061 478.769 214.836 478.991 213.36C480.311 201.965 479.062 190.781 479.584 179.373C479.771 175.298 476.172 176.332 477.661 170.345C477.972 169.1 480.373 169.23 481.906 168.454C482.412 166.291 481.038 164.052 480.852 161.842C478.893 161.229 477.076 161.937 476.376 160.338C478.867 160.399 481.552 161.277 482.217 159.175C482.5 158.284 483.067 157.909 483.927 157.943C486.364 158.039 485.664 164.944 486.045 163.454C485.283 166.434 487.109 168.155 489.723 169.692C493.419 171.862 489.457 174.733 489.218 177.073C488.004 188.978 489.103 200.659 488.704 212.571C488.669 213.53 489.847 213.925 490.37 214.197C490.946 214.503 492.657 214.367 492.976 213.598C493.711 211.823 493.277 209.918 494.181 208.265L508.955 207.714C510.55 194.652 510.426 180.237 510.719 167.624C510.745 166.515 514.751 166.189 514.024 164.848C513.634 164.134 513.466 163.025 512.429 162.25C514.051 161.352 516.001 162.277 517.95 160.91C515.806 159.256 512.969 161.263 511.277 158.488L522.488 157.794L534.629 158.352C533.025 161.427 530.101 159.188 527.974 160.903C530.048 162.325 531.705 161.325 533.734 162.297C530.455 163.869 533.371 165.638 533.513 167.359L536.517 203.782C546.612 204.319 542.783 205.51 551.069 210.469L562.156 202.469C566.765 205.251 569.831 209.34 575.255 211.034C585.766 214.319 597.988 207.564 608.552 204.523L608.605 146.719C610.714 146.29 612.584 144.501 614.498 144.195C618.859 143.501 623.76 143.576 628.102 144.188C630.017 144.453 631.177 146.589 633.881 146.467L633.952 206.537C637.302 207.067 639.987 207.047 643.674 206.537L643.771 146.549C646.324 146.44 647.724 144.365 649.736 144.147C654.202 143.664 659.139 143.474 663.384 144.256C665.245 144.603 666.645 146.481 668.976 146.467L669.464 201.816C670.075 203.482 675.357 201.679 676.562 200.843C678.867 199.224 685.363 200.55 688.004 199.224C687.561 201.503 687.8 202.822 689.927 203.183C689.697 201.673 688.934 199.605 690.007 198.339C699.33 193.523 710.258 191.359 720.999 191.217C708.902 197.38 754.712 193.979 756.538 193.877C760.428 193.652 765.143 197.645 766.446 199.877C768.103 202.7 764.957 204.244 762.901 207.156C777.019 210.319 789.019 211.932 803.465 212.156L803.5 212.149ZM132.307 162.481C132.423 157.236 132.963 153.664 131.917 149.018L120.37 159.29C124.597 160.569 127.557 161.631 132.307 162.488V162.481ZM167.571 177.427L139.973 149.481C138.529 155.331 139.681 159.787 139.335 165.399L167.571 177.427Z" fill="#16122B"></path>
</svg>