<svg width="459" height="419" viewBox="0 0 459 419" fill="none" xmlns="http://www.w3.org/2000/svg">
<path d="M17 202H419" stroke="#484266" stroke-width="10"></path>
<path d="M218 83V299" stroke="#484266" stroke-width="9"></path>
<path d="M423.75 79L150.75 79" stroke="#484266" stroke-width="10"></path>
<path d="M120.75 203L120.75 302" stroke="#484266" stroke-width="14"></path>
<path d="M17 268H124.34L367 207" stroke="#484266" stroke-width="15"></path>
<path d="M159 79H5V334L159 79Z" stroke="#484266" stroke-width="10"></path>
<path d="M449.75 79H295.75V334L449.75 79Z" stroke="#484266" stroke-width="10"></path>
<path d="M367 210L419 210" stroke="#484266" stroke-width="10"></path>
<path d="M418.75 211C418.75 204.9 391.417 120.458 377.75 79" stroke="#484266" stroke-width="15"></path>
<path d="M19 203C19 197.178 45 116.574 58 77" stroke="#484266" stroke-width="15"></path>
<path d="M331 273L419 273" stroke="#484266" stroke-width="8"></path>
<path d="M36 148L117 148" stroke="#484266" stroke-width="15"></path>
<path d="M130.75 132L295.75 132" stroke="#484266" stroke-width="8"></path>
<path d="M173.75 132L140.75 203" stroke="#484266" stroke-width="15"></path>
<path d="M295.75 109L382.75 109" stroke="#484266" stroke-width="8"></path>
</svg>