<svg width="60" height="60" viewBox="0 0 60 60" fill="none" xmlns="http://www.w3.org/2000/svg">
<path d="M36.4512 4.68283C37.2626 4.21459 38.3 4.49272 38.7686 5.30393C40.9123 9.0172 41.0266 13.0427 40.3779 16.4533C40.0236 18.3157 39.4338 20.0381 38.7832 21.4973C40.9941 22.7932 42.8991 24.5538 44.3643 26.6457L54.7363 29.425C53.7123 33.1467 50.9473 35.9265 47.5586 37.1242C47.39 46.774 39.5171 54.5442 29.8271 54.5442C20.1253 54.5439 12.2432 46.7544 12.0938 37.0881C8.74376 35.8745 6.01583 33.1106 5 29.4201L15.2764 26.6662C16.5769 24.8039 18.2252 23.2025 20.1279 21.9572C19.3951 20.4059 18.7145 18.5152 18.3223 16.4533C17.6736 13.0427 17.7879 9.0172 19.9316 5.30393C20.4001 4.49264 21.4376 4.21472 22.249 4.68283C23.0605 5.15131 23.3393 6.1887 22.8711 7.00021C21.2558 9.79801 21.1069 12.93 21.6562 15.8186C21.9808 17.5246 22.542 19.0948 23.1367 20.3781C25.2014 19.5365 27.46 19.0725 29.8271 19.0725C31.8866 19.0725 33.8642 19.4241 35.7031 20.0696C36.2448 18.8465 36.7459 17.3903 37.0449 15.8186C37.5942 12.9301 37.4453 9.79796 35.8301 7.00021C35.3618 6.18873 35.6398 5.15138 36.4512 4.68283Z" fill="#332D54"/>
</svg>
