<svg width="60" height="60" viewBox="0 0 60 60" fill="none" xmlns="http://www.w3.org/2000/svg">
<path d="M24.3669 22.5996L25.3172 24.0054L22.5057 25.906L21.5554 24.5003L22.9612 23.55L24.3669 22.5996ZM19.9319 5.30393C20.4004 4.49235 21.4382 4.21429 22.2498 4.68285C23.0614 5.15142 23.3394 6.18918 22.8709 7.00076L21.4014 6.15234L19.9319 5.30393ZM22.9612 23.55L21.5554 24.5003C20.3965 22.786 18.9687 19.8515 18.3222 16.4526C17.6735 13.0419 17.788 9.01729 19.9319 5.30393L21.4014 6.15234L22.8709 7.00076C21.2555 9.79869 21.1067 12.9299 21.6561 15.8185C22.2078 18.7191 23.4395 21.2278 24.3669 22.5996L22.9612 23.55Z" fill="#AE99FF"/>
<path d="M34.3338 22.5996L33.3835 24.0054L36.195 25.906L37.1453 24.5003L35.7395 23.55L34.3338 22.5996ZM38.7688 5.30393C38.3002 4.49235 37.2625 4.21429 36.4509 4.68285C35.6393 5.15142 35.3613 6.18918 35.8298 7.00076L37.2993 6.15234L38.7688 5.30393ZM35.7395 23.55L37.1453 24.5003C38.3042 22.786 39.732 19.8515 40.3785 16.4526C41.0272 13.0419 40.9127 9.01729 38.7688 5.30393L37.2993 6.15234L35.8298 7.00076C37.4452 9.79869 37.594 12.9299 37.0446 15.8185C36.4929 18.7191 35.2612 21.2278 34.3338 22.5996L35.7395 23.55Z" fill="#AE99FF"/>
<circle cx="29.8276" cy="36.8084" r="17.7363" fill="#5E33FF"/>
<path d="M26.9465 23.5394C28.5204 29.5767 24.9295 35.761 18.8936 37.3784C12.8576 38.9957 6.65564 35.4353 5 29.4199L26.9465 23.5394Z" fill="white"/>
<path d="M20.9581 25.1482C21.6974 27.9072 20.06 30.7432 17.3011 31.4824C14.5422 32.2215 11.707 30.584 10.9678 27.8251L10.9673 27.8232L20.9576 25.1463L20.9581 25.1482Z" fill="#131927"/>
<path d="M54.7366 29.4255C53.0813 35.4413 46.8789 39.002 40.8427 37.3849C34.8065 35.7675 31.2156 29.5825 32.79 23.5449L54.7366 29.4255Z" fill="white"/>
<path d="M48.7481 27.8227C48.0089 30.5816 45.1729 32.219 42.4139 31.4797C39.6551 30.7403 38.0176 27.9044 38.7568 25.1455L48.7481 27.8227Z" fill="#131927"/>
<path d="M32.5659 40.0947C31.4196 40.8351 28.7355 41.2758 27.1421 39.1152" stroke="#FE80D8" stroke-width="6.02372" stroke-linecap="round"/>
<path d="M33.5244 42.9552C31.5893 40.9686 26.5465 40.0835 24.2693 39.8792C25.0008 42.2303 27.5993 43.288 28.9612 43.5407C31.4558 44.1062 33.2323 43.1641 33.5244 42.9552Z" fill="#E4029F" stroke="#E4029F" stroke-width="0.0848412"/>
</svg>
